<mxfile host="app.diagrams.net" modified="2020-08-26T15:53:41.386Z" agent="5.0 (Windows NT 10.0; Win64; x64) AppleWebKit/537.36 (KHTML, like Gecko) Chrome/81.0.4044.138 Safari/537.36 OPR/68.0.3618.206" etag="j3T5qzDzRQjebytAt06C" version="13.6.5" type="github">
  <diagram id="3nMyK2orpvnVmSB7CtmM" name="Page-1">
    <mxGraphModel dx="1381" dy="764" grid="1" gridSize="10" guides="1" tooltips="1" connect="1" arrows="1" fold="1" page="1" pageScale="1" pageWidth="827" pageHeight="1169" math="0" shadow="0">
      <root>
        <mxCell id="0" />
        <mxCell id="1" parent="0" />
        <mxCell id="wXtGfVZ9J5T2TpAT4OFN-1" value="Start" style="ellipse;whiteSpace=wrap;html=1;" vertex="1" parent="1">
          <mxGeometry x="60" y="40" width="120" height="80" as="geometry" />
        </mxCell>
        <mxCell id="wXtGfVZ9J5T2TpAT4OFN-5" value="Polegada, Milimetro" style="shape=internalStorage;whiteSpace=wrap;html=1;dx=15;dy=15;rounded=1;arcSize=8;strokeWidth=2;" vertex="1" parent="1">
          <mxGeometry x="35" y="150" width="170" height="90" as="geometry" />
        </mxCell>
        <mxCell id="wXtGfVZ9J5T2TpAT4OFN-6" value="Milimetro = Polegada * 25,4" style="rounded=1;whiteSpace=wrap;html=1;absoluteArcSize=1;arcSize=14;strokeWidth=2;" vertex="1" parent="1">
          <mxGeometry x="35" y="420" width="170" height="80" as="geometry" />
        </mxCell>
        <mxCell id="wXtGfVZ9J5T2TpAT4OFN-8" value="Polegada" style="html=1;strokeWidth=2;shape=manualInput;whiteSpace=wrap;rounded=1;size=26;arcSize=11;" vertex="1" parent="1">
          <mxGeometry x="50" y="290" width="140" height="80" as="geometry" />
        </mxCell>
        <mxCell id="wXtGfVZ9J5T2TpAT4OFN-10" value="Milimetro" style="strokeWidth=2;html=1;shape=mxgraph.flowchart.document2;whiteSpace=wrap;size=0.25;" vertex="1" parent="1">
          <mxGeometry x="55" y="560" width="130" height="80" as="geometry" />
        </mxCell>
        <mxCell id="wXtGfVZ9J5T2TpAT4OFN-11" value="End" style="ellipse;whiteSpace=wrap;html=1;" vertex="1" parent="1">
          <mxGeometry x="60" y="710" width="120" height="80" as="geometry" />
        </mxCell>
        <mxCell id="wXtGfVZ9J5T2TpAT4OFN-12" value="" style="endArrow=classic;html=1;entryX=0.5;entryY=0;entryDx=0;entryDy=0;" edge="1" parent="1" source="wXtGfVZ9J5T2TpAT4OFN-10" target="wXtGfVZ9J5T2TpAT4OFN-11">
          <mxGeometry width="50" height="50" relative="1" as="geometry">
            <mxPoint x="390" y="440" as="sourcePoint" />
            <mxPoint x="440" y="390" as="targetPoint" />
          </mxGeometry>
        </mxCell>
        <mxCell id="wXtGfVZ9J5T2TpAT4OFN-13" value="" style="endArrow=classic;html=1;exitX=0.5;exitY=1;exitDx=0;exitDy=0;entryX=0.5;entryY=0;entryDx=0;entryDy=0;entryPerimeter=0;" edge="1" parent="1" source="wXtGfVZ9J5T2TpAT4OFN-6" target="wXtGfVZ9J5T2TpAT4OFN-10">
          <mxGeometry width="50" height="50" relative="1" as="geometry">
            <mxPoint x="390" y="440" as="sourcePoint" />
            <mxPoint x="440" y="390" as="targetPoint" />
          </mxGeometry>
        </mxCell>
        <mxCell id="wXtGfVZ9J5T2TpAT4OFN-14" value="" style="endArrow=classic;html=1;exitX=0.5;exitY=1;exitDx=0;exitDy=0;entryX=0.5;entryY=0;entryDx=0;entryDy=0;" edge="1" parent="1" source="wXtGfVZ9J5T2TpAT4OFN-8" target="wXtGfVZ9J5T2TpAT4OFN-6">
          <mxGeometry width="50" height="50" relative="1" as="geometry">
            <mxPoint x="390" y="440" as="sourcePoint" />
            <mxPoint x="440" y="390" as="targetPoint" />
          </mxGeometry>
        </mxCell>
        <mxCell id="wXtGfVZ9J5T2TpAT4OFN-15" value="" style="endArrow=classic;html=1;exitX=0.5;exitY=1;exitDx=0;exitDy=0;entryX=0.5;entryY=0;entryDx=0;entryDy=0;" edge="1" parent="1" source="wXtGfVZ9J5T2TpAT4OFN-5" target="wXtGfVZ9J5T2TpAT4OFN-8">
          <mxGeometry width="50" height="50" relative="1" as="geometry">
            <mxPoint x="390" y="440" as="sourcePoint" />
            <mxPoint x="440" y="390" as="targetPoint" />
          </mxGeometry>
        </mxCell>
        <mxCell id="wXtGfVZ9J5T2TpAT4OFN-16" value="" style="endArrow=classic;html=1;exitX=0.5;exitY=1;exitDx=0;exitDy=0;entryX=0.5;entryY=0;entryDx=0;entryDy=0;" edge="1" parent="1" source="wXtGfVZ9J5T2TpAT4OFN-1" target="wXtGfVZ9J5T2TpAT4OFN-5">
          <mxGeometry width="50" height="50" relative="1" as="geometry">
            <mxPoint x="390" y="440" as="sourcePoint" />
            <mxPoint x="440" y="390" as="targetPoint" />
          </mxGeometry>
        </mxCell>
      </root>
    </mxGraphModel>
  </diagram>
</mxfile>
